<svg width="82" height="81" viewBox="0 0 82 81" fill="none" xmlns="http://www.w3.org/2000/svg">
<g clip-path="url(#clip0_4383_443)">
<path fill-rule="evenodd" clip-rule="evenodd" d="M60.1402 1.96512C58.4412 5.04587 57.3016 7.85027 57.0219 10.6547C52.2044 -2.24147 32.0541 7.28734 26.9466 0C27.7961 3.36732 29.2154 5.88514 30.9145 8.12661C18.1612 2.52805 10.7848 23.2642 1.98913 21.862C5.10752 23.2642 7.94618 24.3798 10.7848 24.9428C-2.26886 29.702 7.37637 49.6092 0 54.655C3.40846 53.5292 5.95704 52.1372 8.2259 50.735C2.55894 63.058 23.5485 70.3453 22.1291 79.0349C23.5485 76.2305 24.6777 73.1497 25.2475 70.6319C30.0649 83.5281 50.2153 73.7127 55.3228 81C54.1832 77.9193 52.7742 75.1149 51.3549 72.8734C63.8388 78.4822 71.2152 57.7358 80.0109 59.4246C77.1722 57.746 74.0538 56.6202 71.5052 56.3438C84.5589 51.5845 74.6236 31.6774 82 26.6315C78.8816 27.4708 76.043 28.873 73.7741 30.5516C79.4307 17.942 58.4412 10.6547 60.1402 1.96512ZM68.0864 56.0572C60.1402 56.0572 54.1832 61.3795 51.3549 70.9083C60.7204 72.0341 61.5699 60.2536 72.0647 59.7009C62.1397 60.5402 60.1506 75.1149 49.086 70.3556C43.4087 65.0334 35.7526 64.4704 26.6772 69.2297C32.3545 76.5171 41.4299 68.9534 49.3761 75.6778C41.4299 69.5163 29.8059 78.4822 25.2579 67.2748C25.2579 59.4246 20.1503 53.5394 10.2254 50.7453C9.08578 59.9977 21.0102 60.837 21.5697 71.2051C20.7098 61.3795 5.9674 59.4143 10.7848 48.4833C16.4622 42.8745 16.7419 35.3108 11.9244 26.345C4.54807 31.9538 12.4943 40.9196 5.3976 48.7699C11.9244 40.9196 2.55894 29.4359 13.9032 24.9428C21.8494 24.9428 27.8064 19.8969 30.6347 10.0917C21.2692 8.96588 20.7098 20.7464 9.92495 21.2991C20.14 20.4598 21.839 5.88514 32.9036 10.6444C38.5809 16.2532 46.5167 16.5296 55.6025 11.7703C49.6455 4.48294 40.8498 12.3332 32.9036 5.32222C40.5597 11.7703 52.1941 2.51782 56.7318 13.7252C56.7318 21.5754 62.119 27.4606 71.7642 30.2547C72.9039 21.0023 60.9794 20.4496 60.42 9.79492C61.2695 19.8867 76.0222 21.5652 71.2048 32.4962C65.8176 38.105 65.2478 45.945 70.0652 54.9212C77.4416 49.036 69.7855 40.3465 76.592 32.4962C70.3553 40.0804 79.4307 51.5743 68.0864 56.0572Z" fill="#1E2A58"/>
<path d="M30.8757 33.3244L28.6354 35.5686C27.4332 36.7728 27.4332 38.6887 28.6354 39.8929L32.4057 43.6698C32.7882 44.0529 32.7335 44.7645 32.351 45.0929L26.7229 49.0888C24.5918 50.7309 24.4279 53.8509 26.2858 55.712C28.1436 57.5731 31.2582 57.4089 32.8975 55.2741L36.8863 49.6909C37.2688 49.1982 37.9245 49.1982 38.307 49.5814L42.0774 53.3583C43.2795 54.5625 45.2466 54.5625 46.3941 53.3583L48.6344 51.1141C48.853 50.8951 48.853 50.5667 48.6344 50.3477L31.6407 33.2696C31.4221 33.1054 31.0943 33.1054 30.8757 33.3244ZM30.4386 51.6067C30.9303 52.0993 30.9303 52.8657 30.4386 53.3036C29.9468 53.7415 29.1818 53.7962 28.69 53.3036C28.1982 52.8109 28.1982 52.0446 28.69 51.6067C29.1818 51.1141 29.9468 51.1141 30.4386 51.6067Z" fill="#1E2957"/>
<path d="M44.2633 22.158L33.1709 33.2697L48.7439 48.8699L59.8363 37.7582C60.0549 37.5392 60.0549 37.2108 59.8363 36.9918L48.6893 25.8254C48.4707 25.6064 48.1429 25.6064 47.9243 25.8254L45.7386 28.0149C46.285 26.8654 46.6675 25.6612 46.9407 24.457C46.9954 24.2927 46.9407 24.0738 46.7768 23.9643L45.0283 22.2127C44.8643 21.939 44.4818 21.939 44.2633 22.158Z" fill="#E42052"/>
</g>
<defs>
<clipPath id="clip0_4383_443">
<rect width="82" height="81" fill="white"/>
</clipPath>
</defs>
</svg>
