<svg width="68" height="68" viewBox="0 0 68 68" fill="none" xmlns="http://www.w3.org/2000/svg">
<g clip-path="url(#clip0_4424_101)">
<path d="M68 49.6923V60.1538C68 64.4791 64.4791 68 60.1538 68H28.7332C30.0932 66.2215 30.9988 64.0932 31.28 61.7231L51.1569 41.8462H60.1538C64.4791 41.8462 68 45.3671 68 49.6923ZM59.6668 22.6656C59.6668 20.5732 58.8298 18.6215 57.3652 17.1569L49.9735 9.76522C48.5449 8.3006 46.5572 7.46368 44.4649 7.46368C42.3726 7.46368 40.3849 8.26464 38.8843 9.76522L31.388 17.2615V54.2268L57.3686 28.2462C58.8692 26.7456 59.6701 24.7579 59.6701 22.6656H59.6668ZM26.1538 7.84615V60.1538C26.1538 64.4791 22.6362 68 18.3077 68H7.84615C3.51767 68 0 64.4791 0 60.1538V7.84615C0 3.52094 3.51767 0 7.84615 0H18.3077C22.6362 0 26.1538 3.52094 26.1538 7.84615ZM16.5652 54.9231C16.5652 52.9975 15.0025 51.4348 13.0769 51.4348C11.1513 51.4348 9.58863 52.9975 9.58863 54.9231C9.58863 56.8487 11.1513 58.4114 13.0769 58.4114C15.0025 58.4114 16.5652 56.8487 16.5652 54.9231Z" fill="#E42052"/>
<path d="M68 49.6923V60.1538C68 64.4791 64.4791 68 60.1538 68H28.7332C30.0932 66.2215 30.9988 64.0932 31.28 61.7231L51.1569 41.8462H60.1538C64.4791 41.8462 68 45.3671 68 49.6923ZM26.1538 7.84615V60.1538C26.1538 64.4791 22.6362 68 18.3077 68H7.84615C3.51767 68 0 64.4791 0 60.1538V7.84615C0 3.52094 3.51767 0 7.84615 0H18.3077C22.6362 0 26.1538 3.52094 26.1538 7.84615ZM16.5652 54.9231C16.5652 52.9975 15.0025 51.4348 13.0769 51.4348C11.1513 51.4348 9.58863 52.9975 9.58863 54.9231C9.58863 56.8487 11.1513 58.4114 13.0769 58.4114C15.0025 58.4114 16.5652 56.8487 16.5652 54.9231Z" fill="#1E2957"/>
</g>
<defs>
<clipPath id="clip0_4424_101">
<rect width="68" height="68" fill="white"/>
</clipPath>
</defs>
</svg>
