<svg width="75" height="83" viewBox="0 0 75 83" fill="none" xmlns="http://www.w3.org/2000/svg">
<g clip-path="url(#clip0_4383_478)">
<path d="M2.88232 36.75V64.5277C3.32253 64.4691 29.4979 64.5696 30.8269 64.5277V36.75C29.4047 36.7332 3.42412 36.75 2.88232 36.75ZM24.5032 45.5514C24.5201 44.8061 25.1296 44.2115 25.8831 44.2115C26.6365 44.2115 27.2461 44.8061 27.2629 45.5514V51.8657C27.2461 52.611 26.6365 53.2139 25.8831 53.2139C25.1296 53.2139 24.5117 52.6194 24.5032 51.8657V45.5514Z" fill="#1E2957"/>
<path d="M54.1745 64.5277H59.2538V36.75C58.7967 36.8169 32.6553 36.6997 31.3262 36.75V64.5277H53.7767C53.9121 64.5109 54.0476 64.5109 54.1745 64.5277ZM37.6414 51.8573C37.633 52.6026 37.015 53.2056 36.2615 53.2056C35.5082 53.2056 34.8902 52.611 34.8817 51.8573V45.5431C34.8986 44.7977 35.5082 44.2032 36.2615 44.2032C37.015 44.2032 37.6245 44.7977 37.6414 45.5431V51.8573Z" fill="#1E2957"/>
<path d="M60.0411 80.4139L55.7744 65.0219H47.1396L55.3173 82.2228C55.639 82.876 56.4094 83.1691 57.0866 82.9011L59.2368 82.0385C59.8887 81.7789 60.2273 81.0839 60.0411 80.4139Z" fill="#E42052"/>
<path d="M8.85039 65.0134H5.98058L1.69704 80.3971C1.5108 81.0671 1.85788 81.7705 2.50973 82.0385L4.6769 82.9011C5.35414 83.169 6.11603 82.8675 6.42925 82.2227L14.6069 65.0302C13.1678 65.0386 10.281 65.0302 8.85039 65.0302V65.0134Z" fill="#E42052"/>
<path d="M66.9989 60.4058L66.8319 60.0213C66.7657 59.8681 66.6623 59.8681 66.5953 60.0213L66.4284 60.4058C66.3622 60.559 66.2587 60.559 66.1918 60.4058L66.0249 60.0213C65.9586 59.8681 65.8552 59.8681 65.7883 60.0213L65.6207 60.4058C65.5545 60.559 65.451 60.559 65.3841 60.4058L65.2172 60.0213C65.1509 59.8681 65.0475 59.8681 64.9806 60.0213L64.8137 60.4058C64.7474 60.559 64.644 60.559 64.5771 60.4058L64.4101 60.0213C64.3439 59.8681 64.2405 59.8681 64.1736 60.0213L64.0066 60.4058C63.9404 60.559 63.837 60.559 63.7701 60.4058L63.6038 60.0213C63.5376 59.8681 63.4341 59.8681 63.3672 60.0213L63.2003 60.4058C63.134 60.559 63.0306 60.559 62.9637 60.4058L62.7974 60.0213C62.7312 59.8681 62.6271 59.8681 62.5609 60.0213L62.3946 60.4042C62.3284 60.5573 62.2249 60.5573 62.158 60.4042L62.129 60.3376C62.0938 60.2577 62.0742 60.1445 62.0742 60.0263L62.0756 22.9735C62.0756 22.8553 62.0952 22.7438 62.1303 22.6622L62.1594 22.5957C62.2256 22.4425 62.3297 22.4425 62.3959 22.5957L62.5622 22.9785C62.6285 23.1317 62.7326 23.1317 62.7988 22.9785L62.9651 22.594C63.0313 22.4408 63.1347 22.4408 63.2016 22.594L63.3686 22.9785C63.4348 23.1317 63.5382 23.1317 63.6051 22.9785L63.7714 22.594C63.8377 22.4408 63.9411 22.4408 64.008 22.594L64.1749 22.9785C64.2412 23.1317 64.3446 23.1317 64.4115 22.9785L64.5784 22.594C64.6447 22.4408 64.7481 22.4408 64.815 22.594L64.982 22.9785C65.0482 23.1317 65.1516 23.1317 65.2185 22.9785L65.3855 22.594C65.4517 22.4408 65.5551 22.4408 65.622 22.594L65.7897 22.9785C65.8559 23.1317 65.9593 23.1317 66.0262 22.9785L66.1932 22.594C66.2594 22.4408 66.3628 22.4408 66.4297 22.594L66.596 22.9785C66.6623 23.1317 66.7657 23.1317 66.8326 22.9785L66.9995 22.594C67.0658 22.4408 67.1692 22.4408 67.2361 22.594L67.2652 22.6606C67.3003 22.7405 67.3199 22.8537 67.3199 22.9719V60.028C67.3199 60.1462 67.3003 60.2594 67.2652 60.3393L67.2361 60.4059C67.1699 60.5591 67.0664 60.5591 66.9995 60.4059L66.9989 60.4058Z" fill="#E42052"/>
<path d="M29.8603 34.2658L30.311 34.1007C30.4906 34.0352 30.4906 33.9329 30.311 33.8667L29.8603 33.7016C29.6808 33.6361 29.6808 33.5339 29.8603 33.4677L30.311 33.3026C30.4906 33.2371 30.4906 33.1348 30.311 33.0686L29.8603 32.9029C29.6808 32.8374 29.6808 32.7351 29.8603 32.6689L30.311 32.5038C30.4906 32.4383 30.4906 32.3361 30.311 32.2699L29.8603 32.1048C29.6808 32.0393 29.6808 31.937 29.8603 31.8709L30.311 31.7058C30.4906 31.6403 30.4906 31.538 30.311 31.4718L29.8603 31.3067C29.6808 31.2412 29.6808 31.139 29.8603 31.0728L30.311 30.9084C30.4906 30.8429 30.4906 30.7406 30.311 30.6744L29.8603 30.5093C29.6808 30.4438 29.6808 30.3415 29.8603 30.2754L30.311 30.1109C30.4906 30.0454 30.4906 29.9425 30.311 29.877L29.8623 29.7126C29.6828 29.6471 29.6828 29.5448 29.8623 29.4786L29.9403 29.4499C30.034 29.4151 30.1667 29.3958 30.3052 29.3958L73.7345 29.3971C73.873 29.3971 74.0037 29.4165 74.0993 29.4512L74.1774 29.48C74.3569 29.5455 74.3569 29.6484 74.1774 29.7139L73.7286 29.8783C73.5491 29.9438 73.5491 30.0468 73.7286 30.1123L74.1793 30.2767C74.3588 30.3422 74.3588 30.4445 74.1793 30.5107L73.7286 30.6757C73.5491 30.7413 73.5491 30.8435 73.7286 30.9097L74.1793 31.0741C74.3588 31.1396 74.3588 31.2419 74.1793 31.3081L73.7286 31.4732C73.5491 31.5387 73.5491 31.6409 73.7286 31.7071L74.1793 31.8722C74.3588 31.9377 74.3588 32.04 74.1793 32.1061L73.7286 32.2712C73.5491 32.3367 73.5491 32.439 73.7286 32.5052L74.1793 32.6703C74.3588 32.7358 74.3588 32.838 74.1793 32.9042L73.7286 33.07C73.5491 33.1355 73.5491 33.2377 73.7286 33.3039L74.1793 33.469C74.3588 33.5345 74.3588 33.6368 74.1793 33.703L73.7286 33.8674C73.5491 33.9329 73.5491 34.0352 73.7286 34.1013L74.1793 34.2664C74.3588 34.3319 74.3588 34.4342 74.1793 34.5004L74.1013 34.5291C74.0076 34.5639 73.8749 34.5833 73.7364 34.5833H30.3031C30.1646 34.5833 30.0319 34.5639 29.9383 34.5291L29.8602 34.5004C29.6807 34.4349 29.6807 34.3326 29.8602 34.2664L29.8603 34.2658Z" fill="#E42052"/>
<path d="M0.134734 34.2658L0.585457 34.1007C0.764969 34.0352 0.764969 33.9329 0.585457 33.8667L0.134734 33.7016C-0.0447791 33.6361 -0.0447791 33.5339 0.134734 33.4677L0.585457 33.3026C0.764969 33.2371 0.764969 33.1348 0.585457 33.0686L0.134734 32.9029C-0.0447791 32.8374 -0.0447791 32.7351 0.134734 32.6689L0.585457 32.5038C0.764969 32.4383 0.764969 32.3361 0.585457 32.2699L0.134734 32.1048C-0.0447791 32.0393 -0.0447791 31.937 0.134734 31.8709L0.585457 31.7058C0.764969 31.6403 0.764969 31.538 0.585457 31.4718L0.134734 31.3067C-0.0447791 31.2412 -0.0447791 31.139 0.134734 31.0728L0.585457 30.9084C0.764969 30.8429 0.764969 30.7406 0.585457 30.6744L0.134734 30.5093C-0.0447791 30.4438 -0.0447791 30.3415 0.134734 30.2754L0.585457 30.1109C0.764969 30.0454 0.764969 29.9425 0.585457 29.877L0.136685 29.7126C-0.0428279 29.6471 -0.0428279 29.5448 0.136685 29.4786L0.214732 29.4499C0.308389 29.4151 0.441065 29.3958 0.579603 29.3958L44.0089 29.3971C44.1474 29.3971 44.2781 29.4165 44.3737 29.4512L44.4518 29.48C44.6313 29.5455 44.6313 29.6484 44.4518 29.7139L44.003 29.8783C43.8235 29.9438 43.8235 30.0468 44.003 30.1123L44.4537 30.2767C44.6333 30.3422 44.6333 30.4445 44.4537 30.5107L44.003 30.6757C43.8235 30.7413 43.8235 30.8435 44.003 30.9097L44.4537 31.0741C44.6333 31.1396 44.6333 31.2419 44.4537 31.3081L44.003 31.4732C43.8235 31.5387 43.8235 31.6409 44.003 31.7071L44.4537 31.8722C44.6333 31.9377 44.6333 32.04 44.4537 32.1061L44.003 32.2712C43.8235 32.3367 43.8235 32.439 44.003 32.5052L44.4537 32.6703C44.6333 32.7358 44.6333 32.838 44.4537 32.9042L44.003 33.07C43.8235 33.1355 43.8235 33.2377 44.003 33.3039L44.4537 33.469C44.6333 33.5345 44.6333 33.6368 44.4537 33.703L44.003 33.8674C43.8235 33.9329 43.8235 34.0352 44.003 34.1013L44.4537 34.2664C44.6333 34.3319 44.6333 34.4342 44.4537 34.5004L44.3757 34.5291C44.282 34.5639 44.1494 34.5833 44.0108 34.5833H0.577553C0.439019 34.5833 0.306339 34.5639 0.212682 34.5291L0.134634 34.5004C-0.0448782 34.4349 -0.0448782 34.3326 0.134634 34.2664L0.134734 34.2658Z" fill="#E42052"/>
<path d="M23.7476 20.3732C24.8034 21.4152 26.9791 20.7295 28.3185 20.0779C33.7553 17.4376 38.2497 10.322 36.079 8.17463C34.9295 7.0375 32.5145 7.92329 31.0517 8.71148C25.6396 11.6324 21.6879 18.3381 23.7476 20.3732ZM28.1779 12.5572C31.3305 9.43866 34.7691 8.43329 35.1687 9.241C35.556 10.0292 34.7099 12.9574 31.6462 15.9882C28.358 19.241 25.0229 20.0535 24.6529 19.3044C24.2656 18.5162 25.1117 15.588 28.1755 12.5572L28.1779 12.5572Z" fill="#1E2957"/>
<path d="M34.5324 9.70471C33.8269 9.66811 31.3602 10.4465 28.701 13.0771C26.0418 15.7076 25.2525 18.1527 25.2919 18.8457C25.9925 18.8848 28.4617 18.1063 31.1234 15.4734C33.785 12.8404 34.5719 10.3977 34.5324 9.70471Z" fill="#1E2957"/>
<path d="M25.0205 21.6349L27.7808 24.3654C28.4542 25.0316 29.7616 25.0755 31.3675 24.4899C37.1274 22.3864 42.4359 14.4655 40.1122 12.1669C37.0312 9.11906 37.3494 9.40456 37.3543 9.50705C37.6059 14.3435 29.8233 21.9667 25.0205 21.6373L25.0205 21.6349Z" fill="#E42052"/>
<path d="M41.5182 3.45533C41.3628 3.42848 41.2419 3.30891 41.2148 3.15274L40.9656 1.63982L39.4362 1.39336C39.2808 1.36895 39.1575 1.24694 39.1303 1.09321L38.9404 0L30.916 7.94286C31.9817 7.39381 33.2792 6.91797 34.4756 6.90821C36.0864 6.89601 36.5156 7.57195 37.5837 8.62856L42.6257 3.64078L41.5206 3.45289L41.5182 3.45533Z" fill="#E42052"/>
</g>
<defs>
<clipPath id="clip0_4383_478">
<rect width="74.314" height="83" fill="white"/>
</clipPath>
</defs>
</svg>
