<svg width="70" height="70" viewBox="0 0 70 70" fill="none" xmlns="http://www.w3.org/2000/svg">
<g clip-path="url(#clip0_4383_492)">
<path d="M52.499 14.9931C52.499 14.3026 51.9393 13.7429 51.249 13.7429C50.5587 13.7429 49.999 14.3026 49.999 14.9931V23.7442H52.499V14.9931Z" fill="#00205B"/>
<path d="M62.4989 16.2433H54.999V23.7442H62.4989V16.2433Z" fill="#00205B"/>
<path d="M53.0542 26.2445C53.5041 27.0013 53.744 27.8644 53.7492 28.7448V36.2458H56.2491V28.7448C56.2543 27.8644 56.4942 27.0013 56.9441 26.2445H53.0542Z" fill="#00205B"/>
<path d="M11.3837 21.4027C10.69 22.1085 9.73953 22.5024 8.75 22.4941V26.2445H36.767C38.5259 26.2409 40.0402 25.0016 40.3919 23.2779L42.4231 13.1441C42.8058 11.2704 41.6867 9.4165 39.8507 8.88236L11.1137 0.356296C10.3458 0.129943 9.55049 0.0100589 8.75 0V4.99187C10.821 4.99187 12.4999 6.67102 12.4999 8.74234V18.7436C12.506 19.7451 12.1028 20.7057 11.3837 21.4027Z" fill="#00205B"/>
<path d="M20.1245 56.2483H21.9745C23.1511 56.2555 24.1706 55.4343 24.4144 54.2831L29.7131 28.7449H24.4394C25.1769 29.9027 25.4267 31.3053 25.1344 32.6466L20.1245 56.2483Z" fill="#E42052"/>
<path d="M47.499 23.7442V16.2433H44.3553L42.8516 23.7442H47.499Z" fill="#00205B"/>
<path d="M6.76521e-05 18.8486C0.0101037 22.4853 2.65835 25.5767 6.24995 26.1445V22.494C6.24995 21.1131 7.36922 19.9937 8.7499 19.9937C9.07538 19.9967 9.38807 19.8672 9.61614 19.6349C9.86165 19.4036 10.0005 19.0809 9.99988 18.7436V8.7423C9.99988 8.05186 9.44025 7.49215 8.7499 7.49215C7.36922 7.49215 6.24995 6.37272 6.24995 4.99184V0.348755C5.24777 0.634171 4.30522 1.09789 3.4675 1.71768C1.27707 3.33687 -0.0107532 5.90313 6.76521e-05 8.62729V18.8486Z" fill="#E42052"/>
<path d="M70.0002 14.9932H64.999V24.9944H70.0002V14.9932Z" fill="#00205B"/>
<path d="M26.861 54.8019C26.3549 57.098 24.3257 58.7371 21.9748 58.7486H19.5886L19.0099 61.4702C18.7422 62.6835 17.8926 63.6861 16.7399 64.1493L13.285 65.532C12.8109 65.722 12.5001 66.1813 12.5 66.6921V68.7499C12.5 69.4403 13.0596 70 13.75 70H33.7496C34.4399 70 34.9996 69.4403 34.9996 68.7499V66.6921C35.0013 66.1804 34.6893 65.7199 34.2133 65.532L31.4384 64.4218C29.7813 63.754 28.8223 62.0128 29.1434 60.2551L34.7571 28.7449H32.2671L26.861 54.8019Z" fill="#00205B"/>
<path d="M64.9986 39.9963C64.9986 39.3058 64.439 38.7461 63.7487 38.7461H46.249C45.5587 38.7461 44.999 39.3058 44.999 39.9963V42.4966H64.9986V39.9963Z" fill="#00205B"/>
<path d="M67.7912 64.3242L65.1575 44.9968H44.8404L42.2067 64.323C41.8332 67.0594 43.7484 69.5805 46.4844 69.954C46.7084 69.9846 46.9343 69.9999 47.1604 70H62.8376C65.5989 69.9997 67.8372 67.7606 67.837 64.9988C67.837 64.7732 67.8217 64.5478 67.7912 64.3242Z" fill="#E42052"/>
</g>
<defs>
<clipPath id="clip0_4383_492">
<rect width="70" height="70" fill="white"/>
</clipPath>
</defs>
</svg>
