<svg width="75" height="81" viewBox="0 0 75 81" fill="none" xmlns="http://www.w3.org/2000/svg">
<path d="M13.8677 47.1142L21.2224 39.8403H38.6505L40.3739 73.1106L33.1971 77.9328H17.3792L13.8677 47.1142Z" fill="#E42052"/>
<path d="M45.6659 16.6432C45.6659 25.8346 38.214 33.2864 29.0226 33.2864C19.8312 33.2864 12.3794 25.8346 12.3794 16.6432C12.3713 7.45183 19.8231 0 29.0145 0C38.2059 0 45.6659 7.45183 45.6659 16.6432Z" fill="#1E2957"/>
<path d="M40.6816 34.9048C37.243 36.8062 33.1813 37.8904 29.0225 37.8904C24.7747 37.8904 20.7939 36.8062 17.3633 34.9048C7.59747 36.3531 0 44.6626 0 54.8815V76.5735C0 78.9199 1.90139 80.9103 4.33679 80.9103H53.781C56.1274 80.9103 58.1178 79.0089 58.1178 76.5735V54.8815C58.0369 44.6626 50.5284 36.256 40.6816 34.9048ZM33.9904 71.4195L29.5646 75.4893C29.2895 75.7644 28.8445 75.7644 28.5694 75.4893L24.1436 71.4195C23.9656 71.2415 23.8685 70.9664 23.8685 70.6994L27.3962 50.6337H25.5919C25.1388 50.6337 24.8718 50.2696 24.8718 49.9136V44.4926C24.8718 44.0395 25.2359 43.7725 25.5919 43.7725H32.5502C33.0033 43.7725 33.2703 44.1366 33.2703 44.4926V49.9136C33.2703 50.3667 32.9062 50.6337 32.5502 50.6337H30.7459L34.2736 70.6994C34.2574 70.9664 34.1684 71.2415 33.9904 71.4195Z" fill="#1E2957"/>
<path d="M66.6188 28.6746L72.1773 24.9284C73.1806 24.2892 73.925 23.3102 74.2729 22.1694C74.6127 21.1823 74.5722 20.0981 74.1515 19.1433C73.7308 18.1805 72.9702 17.42 72.0155 16.9992C71.0607 16.5785 69.9765 16.5299 68.9894 16.8698C67.8486 17.2258 66.8777 17.9782 66.2304 18.9815L62.4681 24.5239C62.0716 25.1226 61.4729 25.5676 60.7851 25.778C60.0974 25.9883 59.353 25.9479 58.6896 25.6647C55.6312 24.2407 52.9207 23.0513 50.105 25.8751L46.998 28.9982L62.1525 44.1527L65.2757 41.1105C68.0913 38.2948 66.8777 35.5843 65.486 32.5259C65.1867 31.8543 65.1381 31.1019 65.3485 30.3899C65.5508 29.6859 66.0039 29.0791 66.6188 28.6746Z" fill="#1E2957"/>
<path d="M45.8506 30L33.2852 42.5654C32.9049 42.9456 32.9049 43.5605 33.2852 43.9489C33.6655 44.3292 34.2804 44.3292 34.6607 43.9489L38.6738 39.9358C39.0056 39.604 39.5477 39.604 39.8794 39.9358C40.2111 40.2675 40.2111 40.8096 39.8794 41.1413L34.2076 46.8131C33.803 47.2258 33.803 47.8812 34.2076 48.2938L34.329 48.4152C34.7416 48.8197 35.397 48.8197 35.8096 48.4152L41.4329 42.7919C41.797 42.4278 42.3957 42.4278 42.7598 42.7919C43.1239 43.156 43.1239 43.7547 42.7598 44.1188L38.2693 48.6093C37.8405 49.0463 37.8405 49.7421 38.2693 50.179C38.7062 50.6078 39.402 50.6078 39.8389 50.179L44.3861 45.6399C44.7178 45.3082 45.2599 45.3082 45.5916 45.6399C45.9234 45.9717 45.9234 46.5138 45.5916 46.8455L40.7937 51.6435C40.5429 51.9024 40.5429 52.315 40.7937 52.5659L40.9879 52.76C41.2468 53.0109 41.6594 53.0109 41.9102 52.76L46.8538 47.8164C47.1128 47.5656 47.5173 47.5656 47.7762 47.8164L48.0028 48.043C48.2536 48.3019 48.2536 48.7145 48.0028 48.9653L42.7679 54.2002C42.3391 54.6372 42.3391 55.333 42.7679 55.7699C43.2048 56.1987 43.9006 56.1987 44.3375 55.7699L49.5724 50.535C49.8313 50.2842 50.244 50.2842 50.4948 50.535C50.7456 50.7939 50.7456 51.2066 50.4948 51.4574L46.7082 55.244C46.1337 55.8265 46.1337 56.757 46.7082 57.3396C47.2908 57.914 48.2212 57.914 48.8038 57.3396L61.0212 45.1221L45.8506 30Z" fill="#E42052"/>
<path d="M70.394 22.0964C71.0911 22.0964 71.6562 21.5313 71.6562 20.8342C71.6562 20.1371 71.0911 19.572 70.394 19.572C69.6969 19.572 69.1318 20.1371 69.1318 20.8342C69.1318 21.5313 69.6969 22.0964 70.394 22.0964Z" fill="#E42052"/>
</svg>
